# xmcd
#
# Track frame offsets:
#	150
#	18287
#	35835
#	51738
#	70151
#	82109
#	96509
#	117937
#	132656
#	150326
#	163140
#	178902
#	198639
#	209443
#	223561
#	238309
#
# Disc length: 3315 seconds
#
# Revision: 2
# Processed by: cddbd v1.5.2PL0 Copyright (c) Steve Scherf et al.
# Submitted via: audiograbber 1.83.01
#
DISCID=fd0cf110
DTITLE=Günther Straub, Peter Müller - Tributes
DYEAR=2011
DGENRE=Boogie
TTITLE0=Mecca Flat Blues
TTITLE1=Honky Tonk Train Blues
TTITLE2=Eclipse Blues
TTITLE3=St. Louis Blues
TTITLE4=Hold 'Em Hootie
TTITLE5=Lullaby Of The Leaves
TTITLE6=Boogie Be With Me
TTITLE7=Blue Turning Grey Over You
TTITLE8=Arkansas Blues
TTITLE9=Blues On My Mind
TTITLE10=Keep On Gwine
TTITLE11=Sweet Patootie Blues
TTITLE12=Old Fashioned Love
TTITLE13=Lazy River
TTITLE14=Let 'Em Jump
TTITLE15=Who's Sorry Now
EXTD=
EXTT0=
EXTT1=
EXTT2=
EXTT3=
EXTT4=
EXTT5=
EXTT6=
EXTT7=
EXTT8=
EXTT9=
EXTT10=
EXTT11=
EXTT12=
EXTT13=
EXTT14=
EXTT15=
PLAYORDER=
